<?xml version="1.0" encoding="UTF-8" standalone="no"?>
<!DOCTYPE svg PUBLIC "-//W3C//DTD SVG 1.1//EN"
 "http://www.w3.org/Graphics/SVG/1.1/DTD/svg11.dtd">
<!-- Generated by graphviz version 2.43.0 (0)
 -->
<!-- Title: %3 Pages: 1 -->
<svg width="1776pt" height="620pt"
 viewBox="0.00 0.00 1776.00 620.00" xmlns="http://www.w3.org/2000/svg" xmlns:xlink="http://www.w3.org/1999/xlink">
<g id="graph0" class="graph" transform="scale(1 1) rotate(0) translate(4 616)">
<title>%3</title>
<polygon fill="white" stroke="transparent" points="-4,4 -4,-616 1772,-616 1772,4 -4,4"/>
<!-- [root] aws_default_route_table.tf&#45;aws&#45;rt (expand) -->
<g id="node1" class="node">
<title>[root] aws_default_route_table.tf&#45;aws&#45;rt (expand)</title>
<polygon fill="none" stroke="black" points="340,-252 86,-252 86,-216 340,-216 340,-252"/>
<text text-anchor="middle" x="213" y="-230.3" font-family="Times,serif" font-size="14.00">aws_default_route_table.tf&#45;aws&#45;rt</text>
</g>
<!-- [root] aws_vpc.tf&#45;aws&#45;vpc (expand) -->
<g id="node10" class="node">
<title>[root] aws_vpc.tf&#45;aws&#45;vpc (expand)</title>
<polygon fill="none" stroke="black" points="604,-180 452,-180 452,-144 604,-144 604,-180"/>
<text text-anchor="middle" x="528" y="-158.3" font-family="Times,serif" font-size="14.00">aws_vpc.tf&#45;aws&#45;vpc</text>
</g>
<!-- [root] aws_default_route_table.tf&#45;aws&#45;rt (expand)&#45;&gt;[root] aws_vpc.tf&#45;aws&#45;vpc (expand) -->
<g id="edge1" class="edge">
<title>[root] aws_default_route_table.tf&#45;aws&#45;rt (expand)&#45;&gt;[root] aws_vpc.tf&#45;aws&#45;vpc (expand)</title>
<path fill="none" stroke="black" d="M289.65,-215.97C335.64,-205.75 394.25,-192.72 441.84,-182.15"/>
<polygon fill="black" stroke="black" points="442.82,-185.51 451.82,-179.93 441.3,-178.68 442.82,-185.51"/>
</g>
<!-- [root] aws_eip.tf&#45;aws&#45;eip (expand) -->
<g id="node2" class="node">
<title>[root] aws_eip.tf&#45;aws&#45;eip (expand)</title>
<polygon fill="none" stroke="black" points="922,-396 776,-396 776,-360 922,-360 922,-396"/>
<text text-anchor="middle" x="849" y="-374.3" font-family="Times,serif" font-size="14.00">aws_eip.tf&#45;aws&#45;eip</text>
</g>
<!-- [root] aws_instance.tf&#45;aws&#45;ubuntu&#45;instance (expand) -->
<g id="node3" class="node">
<title>[root] aws_instance.tf&#45;aws&#45;ubuntu&#45;instance (expand)</title>
<polygon fill="none" stroke="black" points="1254,-324 976,-324 976,-288 1254,-288 1254,-324"/>
<text text-anchor="middle" x="1115" y="-302.3" font-family="Times,serif" font-size="14.00">aws_instance.tf&#45;aws&#45;ubuntu&#45;instance</text>
</g>
<!-- [root] aws_eip.tf&#45;aws&#45;eip (expand)&#45;&gt;[root] aws_instance.tf&#45;aws&#45;ubuntu&#45;instance (expand) -->
<g id="edge2" class="edge">
<title>[root] aws_eip.tf&#45;aws&#45;eip (expand)&#45;&gt;[root] aws_instance.tf&#45;aws&#45;ubuntu&#45;instance (expand)</title>
<path fill="none" stroke="black" d="M913.73,-359.97C951.87,-349.93 1000.28,-337.19 1040.06,-326.72"/>
<polygon fill="black" stroke="black" points="1041.2,-330.04 1049.98,-324.11 1039.42,-323.27 1041.2,-330.04"/>
</g>
<!-- [root] aws_internet_gateway.tf&#45;aws&#45;gw (expand) -->
<g id="node4" class="node">
<title>[root] aws_internet_gateway.tf&#45;aws&#45;gw (expand)</title>
<polygon fill="none" stroke="black" points="766,-252 520,-252 520,-216 766,-216 766,-252"/>
<text text-anchor="middle" x="643" y="-230.3" font-family="Times,serif" font-size="14.00">aws_internet_gateway.tf&#45;aws&#45;gw</text>
</g>
<!-- [root] aws_instance.tf&#45;aws&#45;ubuntu&#45;instance (expand)&#45;&gt;[root] aws_internet_gateway.tf&#45;aws&#45;gw (expand) -->
<g id="edge3" class="edge">
<title>[root] aws_instance.tf&#45;aws&#45;ubuntu&#45;instance (expand)&#45;&gt;[root] aws_internet_gateway.tf&#45;aws&#45;gw (expand)</title>
<path fill="none" stroke="black" d="M1000.14,-287.97C929.9,-277.55 840.03,-264.22 768.01,-253.54"/>
<polygon fill="black" stroke="black" points="768.37,-250.06 757.97,-252.05 767.34,-256.98 768.37,-250.06"/>
</g>
<!-- [root] aws_security_group.tf&#45;aws&#45;sg (expand) -->
<g id="node8" class="node">
<title>[root] aws_security_group.tf&#45;aws&#45;sg (expand)</title>
<polygon fill="none" stroke="black" points="1228,-252 1002,-252 1002,-216 1228,-216 1228,-252"/>
<text text-anchor="middle" x="1115" y="-230.3" font-family="Times,serif" font-size="14.00">aws_security_group.tf&#45;aws&#45;sg</text>
</g>
<!-- [root] aws_instance.tf&#45;aws&#45;ubuntu&#45;instance (expand)&#45;&gt;[root] aws_security_group.tf&#45;aws&#45;sg (expand) -->
<g id="edge4" class="edge">
<title>[root] aws_instance.tf&#45;aws&#45;ubuntu&#45;instance (expand)&#45;&gt;[root] aws_security_group.tf&#45;aws&#45;sg (expand)</title>
<path fill="none" stroke="black" d="M1115,-287.7C1115,-279.98 1115,-270.71 1115,-262.11"/>
<polygon fill="black" stroke="black" points="1118.5,-262.1 1115,-252.1 1111.5,-262.1 1118.5,-262.1"/>
</g>
<!-- [root] aws_subnet.tf&#45;aws&#45;subnet (expand) -->
<g id="node9" class="node">
<title>[root] aws_subnet.tf&#45;aws&#45;subnet (expand)</title>
<polygon fill="none" stroke="black" points="984,-252 784,-252 784,-216 984,-216 984,-252"/>
<text text-anchor="middle" x="884" y="-230.3" font-family="Times,serif" font-size="14.00">aws_subnet.tf&#45;aws&#45;subnet</text>
</g>
<!-- [root] aws_instance.tf&#45;aws&#45;ubuntu&#45;instance (expand)&#45;&gt;[root] aws_subnet.tf&#45;aws&#45;subnet (expand) -->
<g id="edge5" class="edge">
<title>[root] aws_instance.tf&#45;aws&#45;ubuntu&#45;instance (expand)&#45;&gt;[root] aws_subnet.tf&#45;aws&#45;subnet (expand)</title>
<path fill="none" stroke="black" d="M1058.79,-287.97C1026.09,-278.06 984.7,-265.51 950.4,-255.12"/>
<polygon fill="black" stroke="black" points="951.05,-251.66 940.47,-252.11 949.02,-258.36 951.05,-251.66"/>
</g>
<!-- [root] var.ebs_iops -->
<g id="node17" class="node">
<title>[root] var.ebs_iops</title>
<polygon fill="none" stroke="black" points="1344,-252 1246,-252 1246,-216 1350,-216 1350,-246 1344,-252"/>
<polyline fill="none" stroke="black" points="1344,-252 1344,-246 "/>
<polyline fill="none" stroke="black" points="1350,-246 1344,-246 "/>
<text text-anchor="middle" x="1298" y="-230.3" font-family="Times,serif" font-size="14.00">var.ebs_iops</text>
</g>
<!-- [root] aws_instance.tf&#45;aws&#45;ubuntu&#45;instance (expand)&#45;&gt;[root] var.ebs_iops -->
<g id="edge6" class="edge">
<title>[root] aws_instance.tf&#45;aws&#45;ubuntu&#45;instance (expand)&#45;&gt;[root] var.ebs_iops</title>
<path fill="none" stroke="black" d="M1159.77,-287.88C1185.12,-278.18 1217.01,-265.98 1243.77,-255.74"/>
<polygon fill="black" stroke="black" points="1245.29,-258.91 1253.38,-252.07 1242.79,-252.37 1245.29,-258.91"/>
</g>
<!-- [root] var.ebs_throughput -->
<g id="node18" class="node">
<title>[root] var.ebs_throughput</title>
<polygon fill="none" stroke="black" points="1517.5,-252 1368.5,-252 1368.5,-216 1523.5,-216 1523.5,-246 1517.5,-252"/>
<polyline fill="none" stroke="black" points="1517.5,-252 1517.5,-246 "/>
<polyline fill="none" stroke="black" points="1523.5,-246 1517.5,-246 "/>
<text text-anchor="middle" x="1446" y="-230.3" font-family="Times,serif" font-size="14.00">var.ebs_throughput</text>
</g>
<!-- [root] aws_instance.tf&#45;aws&#45;ubuntu&#45;instance (expand)&#45;&gt;[root] var.ebs_throughput -->
<g id="edge7" class="edge">
<title>[root] aws_instance.tf&#45;aws&#45;ubuntu&#45;instance (expand)&#45;&gt;[root] var.ebs_throughput</title>
<path fill="none" stroke="black" d="M1195.55,-287.97C1244.79,-277.55 1307.81,-264.23 1358.31,-253.55"/>
<polygon fill="black" stroke="black" points="1359.17,-256.94 1368.23,-251.45 1357.73,-250.09 1359.17,-256.94"/>
</g>
<!-- [root] var.ebs_type -->
<g id="node19" class="node">
<title>[root] var.ebs_type</title>
<polygon fill="none" stroke="black" points="1642,-252 1542,-252 1542,-216 1648,-216 1648,-246 1642,-252"/>
<polyline fill="none" stroke="black" points="1642,-252 1642,-246 "/>
<polyline fill="none" stroke="black" points="1648,-246 1642,-246 "/>
<text text-anchor="middle" x="1595" y="-230.3" font-family="Times,serif" font-size="14.00">var.ebs_type</text>
</g>
<!-- [root] aws_instance.tf&#45;aws&#45;ubuntu&#45;instance (expand)&#45;&gt;[root] var.ebs_type -->
<g id="edge8" class="edge">
<title>[root] aws_instance.tf&#45;aws&#45;ubuntu&#45;instance (expand)&#45;&gt;[root] var.ebs_type</title>
<path fill="none" stroke="black" d="M1254.18,-292.34C1333.15,-283.96 1433.87,-271.26 1531.62,-252.13"/>
<polygon fill="black" stroke="black" points="1532.55,-255.51 1541.68,-250.14 1531.19,-248.65 1532.55,-255.51"/>
</g>
<!-- [root] var.ssh_key_name -->
<g id="node21" class="node">
<title>[root] var.ssh_key_name</title>
<polygon fill="none" stroke="black" points="496,-252 358,-252 358,-216 502,-216 502,-246 496,-252"/>
<polyline fill="none" stroke="black" points="496,-252 496,-246 "/>
<polyline fill="none" stroke="black" points="502,-246 496,-246 "/>
<text text-anchor="middle" x="430" y="-230.3" font-family="Times,serif" font-size="14.00">var.ssh_key_name</text>
</g>
<!-- [root] aws_instance.tf&#45;aws&#45;ubuntu&#45;instance (expand)&#45;&gt;[root] var.ssh_key_name -->
<g id="edge9" class="edge">
<title>[root] aws_instance.tf&#45;aws&#45;ubuntu&#45;instance (expand)&#45;&gt;[root] var.ssh_key_name</title>
<path fill="none" stroke="black" d="M975.97,-293.68C820.57,-280.9 582.45,-260.88 512.43,-252.01"/>
<polygon fill="black" stroke="black" points="512.73,-248.51 502.35,-250.63 511.78,-255.45 512.73,-248.51"/>
</g>
<!-- [root] var.vm_map -->
<g id="node22" class="node">
<title>[root] var.vm_map</title>
<polygon fill="none" stroke="black" points="1762,-252 1666,-252 1666,-216 1768,-216 1768,-246 1762,-252"/>
<polyline fill="none" stroke="black" points="1762,-252 1762,-246 "/>
<polyline fill="none" stroke="black" points="1768,-246 1762,-246 "/>
<text text-anchor="middle" x="1717" y="-230.3" font-family="Times,serif" font-size="14.00">var.vm_map</text>
</g>
<!-- [root] aws_instance.tf&#45;aws&#45;ubuntu&#45;instance (expand)&#45;&gt;[root] var.vm_map -->
<g id="edge10" class="edge">
<title>[root] aws_instance.tf&#45;aws&#45;ubuntu&#45;instance (expand)&#45;&gt;[root] var.vm_map</title>
<path fill="none" stroke="black" d="M1254.08,-298.25C1361.57,-291.43 1514.02,-278.27 1655.58,-252.08"/>
<polygon fill="black" stroke="black" points="1656.57,-255.45 1665.76,-250.17 1655.28,-248.57 1656.57,-255.45"/>
</g>
<!-- [root] aws_internet_gateway.tf&#45;aws&#45;gw (expand)&#45;&gt;[root] aws_vpc.tf&#45;aws&#45;vpc (expand) -->
<g id="edge11" class="edge">
<title>[root] aws_internet_gateway.tf&#45;aws&#45;gw (expand)&#45;&gt;[root] aws_vpc.tf&#45;aws&#45;vpc (expand)</title>
<path fill="none" stroke="black" d="M614.87,-215.88C599.83,-206.72 581.13,-195.34 564.94,-185.48"/>
<polygon fill="black" stroke="black" points="566.6,-182.4 556.24,-180.19 562.96,-188.38 566.6,-182.4"/>
</g>
<!-- [root] aws_key_pair.tf&#45;aws&#45;key&#45;pair (expand) -->
<g id="node5" class="node">
<title>[root] aws_key_pair.tf&#45;aws&#45;key&#45;pair (expand)</title>
<polygon fill="none" stroke="black" points="232.5,-324 13.5,-324 13.5,-288 232.5,-288 232.5,-324"/>
<text text-anchor="middle" x="123" y="-302.3" font-family="Times,serif" font-size="14.00">aws_key_pair.tf&#45;aws&#45;key&#45;pair</text>
</g>
<!-- [root] provider[&quot;registry.terraform.io/hashicorp/aws&quot;] -->
<g id="node12" class="node">
<title>[root] provider[&quot;registry.terraform.io/hashicorp/aws&quot;]</title>
<polygon fill="none" stroke="black" points="499,-108 173.74,-90 499,-72 824.26,-90 499,-108"/>
<text text-anchor="middle" x="499" y="-86.3" font-family="Times,serif" font-size="14.00">provider[&quot;registry.terraform.io/hashicorp/aws&quot;]</text>
</g>
<!-- [root] aws_key_pair.tf&#45;aws&#45;key&#45;pair (expand)&#45;&gt;[root] provider[&quot;registry.terraform.io/hashicorp/aws&quot;] -->
<g id="edge12" class="edge">
<title>[root] aws_key_pair.tf&#45;aws&#45;key&#45;pair (expand)&#45;&gt;[root] provider[&quot;registry.terraform.io/hashicorp/aws&quot;]</title>
<path fill="none" stroke="black" d="M103.19,-287.97C83.9,-269.32 59.83,-238.99 77,-216 116.55,-163.03 295.42,-124.56 407.21,-105.19"/>
<polygon fill="black" stroke="black" points="407.88,-108.63 417.14,-103.49 406.7,-101.73 407.88,-108.63"/>
</g>
<!-- [root] var.env_tag -->
<g id="node20" class="node">
<title>[root] var.env_tag</title>
<polygon fill="none" stroke="black" points="92,-108 0,-108 0,-72 98,-72 98,-102 92,-108"/>
<polyline fill="none" stroke="black" points="92,-108 92,-102 "/>
<polyline fill="none" stroke="black" points="98,-102 92,-102 "/>
<text text-anchor="middle" x="49" y="-86.3" font-family="Times,serif" font-size="14.00">var.env_tag</text>
</g>
<!-- [root] aws_key_pair.tf&#45;aws&#45;key&#45;pair (expand)&#45;&gt;[root] var.env_tag -->
<g id="edge13" class="edge">
<title>[root] aws_key_pair.tf&#45;aws&#45;key&#45;pair (expand)&#45;&gt;[root] var.env_tag</title>
<path fill="none" stroke="black" d="M82.32,-287.88C67.48,-279.41 52.32,-267.59 44,-252 21.44,-209.7 31.34,-151.84 40.34,-118.24"/>
<polygon fill="black" stroke="black" points="43.82,-118.81 43.19,-108.24 37.08,-116.9 43.82,-118.81"/>
</g>
<!-- [root] aws_key_pair.tf&#45;aws&#45;key&#45;pair (expand)&#45;&gt;[root] var.ssh_key_name -->
<g id="edge14" class="edge">
<title>[root] aws_key_pair.tf&#45;aws&#45;key&#45;pair (expand)&#45;&gt;[root] var.ssh_key_name</title>
<path fill="none" stroke="black" d="M197.71,-287.97C243.19,-277.59 301.34,-264.34 348.08,-253.68"/>
<polygon fill="black" stroke="black" points="348.9,-257.08 357.87,-251.45 347.34,-250.26 348.9,-257.08"/>
</g>
<!-- [root] aws_route.tf&#45;aws&#45;rt (expand) -->
<g id="node6" class="node">
<title>[root] aws_route.tf&#45;aws&#45;rt (expand)</title>
<polygon fill="none" stroke="black" points="535,-324 381,-324 381,-288 535,-288 535,-324"/>
<text text-anchor="middle" x="458" y="-302.3" font-family="Times,serif" font-size="14.00">aws_route.tf&#45;aws&#45;rt</text>
</g>
<!-- [root] aws_route.tf&#45;aws&#45;rt (expand)&#45;&gt;[root] aws_default_route_table.tf&#45;aws&#45;rt (expand) -->
<g id="edge15" class="edge">
<title>[root] aws_route.tf&#45;aws&#45;rt (expand)&#45;&gt;[root] aws_default_route_table.tf&#45;aws&#45;rt (expand)</title>
<path fill="none" stroke="black" d="M398.38,-287.97C363.55,-278.01 319.42,-265.41 282.96,-254.99"/>
<polygon fill="black" stroke="black" points="283.46,-251.49 272.89,-252.11 281.54,-258.22 283.46,-251.49"/>
</g>
<!-- [root] aws_route.tf&#45;aws&#45;rt (expand)&#45;&gt;[root] aws_internet_gateway.tf&#45;aws&#45;gw (expand) -->
<g id="edge16" class="edge">
<title>[root] aws_route.tf&#45;aws&#45;rt (expand)&#45;&gt;[root] aws_internet_gateway.tf&#45;aws&#45;gw (expand)</title>
<path fill="none" stroke="black" d="M503.26,-287.88C529,-278.14 561.41,-265.87 588.54,-255.61"/>
<polygon fill="black" stroke="black" points="589.78,-258.88 597.89,-252.07 587.3,-252.33 589.78,-258.88"/>
</g>
<!-- [root] aws_route_table_association.tf&#45;aws&#45;rt&#45;assoc&#45;1 (expand) -->
<g id="node7" class="node">
<title>[root] aws_route_table_association.tf&#45;aws&#45;rt&#45;assoc&#45;1 (expand)</title>
<polygon fill="none" stroke="black" points="893,-324 553,-324 553,-288 893,-288 893,-324"/>
<text text-anchor="middle" x="723" y="-302.3" font-family="Times,serif" font-size="14.00">aws_route_table_association.tf&#45;aws&#45;rt&#45;assoc&#45;1</text>
</g>
<!-- [root] aws_route_table_association.tf&#45;aws&#45;rt&#45;assoc&#45;1 (expand)&#45;&gt;[root] aws_default_route_table.tf&#45;aws&#45;rt (expand) -->
<g id="edge17" class="edge">
<title>[root] aws_route_table_association.tf&#45;aws&#45;rt&#45;assoc&#45;1 (expand)&#45;&gt;[root] aws_default_route_table.tf&#45;aws&#45;rt (expand)</title>
<path fill="none" stroke="black" d="M598.89,-287.97C522.85,-277.53 425.49,-264.17 347.59,-253.47"/>
<polygon fill="black" stroke="black" points="347.6,-249.94 337.22,-252.05 346.65,-256.88 347.6,-249.94"/>
</g>
<!-- [root] aws_route_table_association.tf&#45;aws&#45;rt&#45;assoc&#45;1 (expand)&#45;&gt;[root] aws_subnet.tf&#45;aws&#45;subnet (expand) -->
<g id="edge18" class="edge">
<title>[root] aws_route_table_association.tf&#45;aws&#45;rt&#45;assoc&#45;1 (expand)&#45;&gt;[root] aws_subnet.tf&#45;aws&#45;subnet (expand)</title>
<path fill="none" stroke="black" d="M762.39,-287.88C784.39,-278.31 812.01,-266.3 835.36,-256.15"/>
<polygon fill="black" stroke="black" points="836.97,-259.27 844.74,-252.07 834.18,-252.85 836.97,-259.27"/>
</g>
<!-- [root] aws_security_group.tf&#45;aws&#45;sg (expand)&#45;&gt;[root] aws_vpc.tf&#45;aws&#45;vpc (expand) -->
<g id="edge19" class="edge">
<title>[root] aws_security_group.tf&#45;aws&#45;sg (expand)&#45;&gt;[root] aws_vpc.tf&#45;aws&#45;vpc (expand)</title>
<path fill="none" stroke="black" d="M1001.69,-217.11C998.77,-216.73 995.86,-216.36 993,-216 860.98,-199.28 707.56,-182.26 614.15,-172.17"/>
<polygon fill="black" stroke="black" points="614.5,-168.69 604.19,-171.09 613.75,-175.65 614.5,-168.69"/>
</g>
<!-- [root] aws_subnet.tf&#45;aws&#45;subnet (expand)&#45;&gt;[root] aws_vpc.tf&#45;aws&#45;vpc (expand) -->
<g id="edge20" class="edge">
<title>[root] aws_subnet.tf&#45;aws&#45;subnet (expand)&#45;&gt;[root] aws_vpc.tf&#45;aws&#45;vpc (expand)</title>
<path fill="none" stroke="black" d="M797.37,-215.97C741.64,-205.01 669.53,-190.83 613.94,-179.9"/>
<polygon fill="black" stroke="black" points="614.6,-176.46 604.12,-177.97 613.25,-183.33 614.6,-176.46"/>
</g>
<!-- [root] var.aws_availability_zone -->
<g id="node14" class="node">
<title>[root] var.aws_availability_zone</title>
<polygon fill="none" stroke="black" points="976,-180 786,-180 786,-144 982,-144 982,-174 976,-180"/>
<polyline fill="none" stroke="black" points="976,-180 976,-174 "/>
<polyline fill="none" stroke="black" points="982,-174 976,-174 "/>
<text text-anchor="middle" x="884" y="-158.3" font-family="Times,serif" font-size="14.00">var.aws_availability_zone</text>
</g>
<!-- [root] aws_subnet.tf&#45;aws&#45;subnet (expand)&#45;&gt;[root] var.aws_availability_zone -->
<g id="edge21" class="edge">
<title>[root] aws_subnet.tf&#45;aws&#45;subnet (expand)&#45;&gt;[root] var.aws_availability_zone</title>
<path fill="none" stroke="black" d="M884,-215.7C884,-207.98 884,-198.71 884,-190.11"/>
<polygon fill="black" stroke="black" points="887.5,-190.1 884,-180.1 880.5,-190.1 887.5,-190.1"/>
</g>
<!-- [root] aws_vpc.tf&#45;aws&#45;vpc (expand)&#45;&gt;[root] provider[&quot;registry.terraform.io/hashicorp/aws&quot;] -->
<g id="edge22" class="edge">
<title>[root] aws_vpc.tf&#45;aws&#45;vpc (expand)&#45;&gt;[root] provider[&quot;registry.terraform.io/hashicorp/aws&quot;]</title>
<path fill="none" stroke="black" d="M520.83,-143.7C517.48,-135.61 513.42,-125.81 509.72,-116.87"/>
<polygon fill="black" stroke="black" points="512.95,-115.52 505.89,-107.62 506.48,-118.2 512.95,-115.52"/>
</g>
<!-- [root] aws_vpc.tf&#45;aws&#45;vpc (expand)&#45;&gt;[root] var.env_tag -->
<g id="edge23" class="edge">
<title>[root] aws_vpc.tf&#45;aws&#45;vpc (expand)&#45;&gt;[root] var.env_tag</title>
<path fill="none" stroke="black" d="M451.87,-149.9C378.42,-139.18 264.1,-122.5 165,-108 146.48,-105.29 126.29,-102.33 108.03,-99.66"/>
<polygon fill="black" stroke="black" points="108.51,-96.19 98.1,-98.2 107.49,-103.12 108.51,-96.19"/>
</g>
<!-- [root] local_file.tf&#45;aws&#45;eip&#45;loc (expand) -->
<g id="node11" class="node">
<title>[root] local_file.tf&#45;aws&#45;eip&#45;loc (expand)</title>
<polygon fill="none" stroke="black" points="1020,-468 844,-468 844,-432 1020,-432 1020,-468"/>
<text text-anchor="middle" x="932" y="-446.3" font-family="Times,serif" font-size="14.00">local_file.tf&#45;aws&#45;eip&#45;loc</text>
</g>
<!-- [root] local_file.tf&#45;aws&#45;eip&#45;loc (expand)&#45;&gt;[root] aws_eip.tf&#45;aws&#45;eip (expand) -->
<g id="edge24" class="edge">
<title>[root] local_file.tf&#45;aws&#45;eip&#45;loc (expand)&#45;&gt;[root] aws_eip.tf&#45;aws&#45;eip (expand)</title>
<path fill="none" stroke="black" d="M911.48,-431.7C901.13,-422.97 888.41,-412.24 877.16,-402.75"/>
<polygon fill="black" stroke="black" points="879.18,-399.88 869.28,-396.1 874.67,-405.23 879.18,-399.88"/>
</g>
<!-- [root] provider[&quot;registry.terraform.io/hashicorp/local&quot;] -->
<g id="node13" class="node">
<title>[root] provider[&quot;registry.terraform.io/hashicorp/local&quot;]</title>
<polygon fill="none" stroke="black" points="1270,-396 940.05,-378 1270,-360 1599.95,-378 1270,-396"/>
<text text-anchor="middle" x="1270" y="-374.3" font-family="Times,serif" font-size="14.00">provider[&quot;registry.terraform.io/hashicorp/local&quot;]</text>
</g>
<!-- [root] local_file.tf&#45;aws&#45;eip&#45;loc (expand)&#45;&gt;[root] provider[&quot;registry.terraform.io/hashicorp/local&quot;] -->
<g id="edge25" class="edge">
<title>[root] local_file.tf&#45;aws&#45;eip&#45;loc (expand)&#45;&gt;[root] provider[&quot;registry.terraform.io/hashicorp/local&quot;]</title>
<path fill="none" stroke="black" d="M1014.25,-431.97C1069.32,-420.56 1141.26,-405.66 1194.81,-394.57"/>
<polygon fill="black" stroke="black" points="1195.84,-397.93 1204.92,-392.48 1194.42,-391.08 1195.84,-397.93"/>
</g>
<!-- [root] var.aws_profile -->
<g id="node15" class="node">
<title>[root] var.aws_profile</title>
<polygon fill="none" stroke="black" points="483.5,-36 366.5,-36 366.5,0 489.5,0 489.5,-30 483.5,-36"/>
<polyline fill="none" stroke="black" points="483.5,-36 483.5,-30 "/>
<polyline fill="none" stroke="black" points="489.5,-30 483.5,-30 "/>
<text text-anchor="middle" x="428" y="-14.3" font-family="Times,serif" font-size="14.00">var.aws_profile</text>
</g>
<!-- [root] provider[&quot;registry.terraform.io/hashicorp/aws&quot;]&#45;&gt;[root] var.aws_profile -->
<g id="edge30" class="edge">
<title>[root] provider[&quot;registry.terraform.io/hashicorp/aws&quot;]&#45;&gt;[root] var.aws_profile</title>
<path fill="none" stroke="black" d="M482.53,-72.76C473.65,-64.01 462.52,-53.03 452.63,-43.28"/>
<polygon fill="black" stroke="black" points="454.95,-40.65 445.37,-36.12 450.03,-45.64 454.95,-40.65"/>
</g>
<!-- [root] var.aws_region -->
<g id="node16" class="node">
<title>[root] var.aws_region</title>
<polygon fill="none" stroke="black" points="624.5,-36 507.5,-36 507.5,0 630.5,0 630.5,-30 624.5,-36"/>
<polyline fill="none" stroke="black" points="624.5,-36 624.5,-30 "/>
<polyline fill="none" stroke="black" points="630.5,-30 624.5,-30 "/>
<text text-anchor="middle" x="569" y="-14.3" font-family="Times,serif" font-size="14.00">var.aws_region</text>
</g>
<!-- [root] provider[&quot;registry.terraform.io/hashicorp/aws&quot;]&#45;&gt;[root] var.aws_region -->
<g id="edge31" class="edge">
<title>[root] provider[&quot;registry.terraform.io/hashicorp/aws&quot;]&#45;&gt;[root] var.aws_region</title>
<path fill="none" stroke="black" d="M515.24,-72.76C523.99,-64.01 534.97,-53.03 544.72,-43.28"/>
<polygon fill="black" stroke="black" points="547.28,-45.67 551.88,-36.12 542.33,-40.72 547.28,-45.67"/>
</g>
<!-- [root] provider[&quot;registry.terraform.io/hashicorp/aws&quot;] (close) -->
<g id="node23" class="node">
<title>[root] provider[&quot;registry.terraform.io/hashicorp/aws&quot;] (close)</title>
<ellipse fill="none" stroke="black" cx="534" cy="-450" rx="291.65" ry="18"/>
<text text-anchor="middle" x="534" y="-446.3" font-family="Times,serif" font-size="14.00">[root] provider[&quot;registry.terraform.io/hashicorp/aws&quot;] (close)</text>
</g>
<!-- [root] provider[&quot;registry.terraform.io/hashicorp/aws&quot;] (close)&#45;&gt;[root] aws_eip.tf&#45;aws&#45;eip (expand) -->
<g id="edge26" class="edge">
<title>[root] provider[&quot;registry.terraform.io/hashicorp/aws&quot;] (close)&#45;&gt;[root] aws_eip.tf&#45;aws&#45;eip (expand)</title>
<path fill="none" stroke="black" d="M608.25,-432.5C655.56,-421.99 716.93,-408.35 765.86,-397.48"/>
<polygon fill="black" stroke="black" points="766.79,-400.85 775.79,-395.27 765.27,-394.02 766.79,-400.85"/>
</g>
<!-- [root] provider[&quot;registry.terraform.io/hashicorp/aws&quot;] (close)&#45;&gt;[root] aws_key_pair.tf&#45;aws&#45;key&#45;pair (expand) -->
<g id="edge27" class="edge">
<title>[root] provider[&quot;registry.terraform.io/hashicorp/aws&quot;] (close)&#45;&gt;[root] aws_key_pair.tf&#45;aws&#45;key&#45;pair (expand)</title>
<path fill="none" stroke="black" d="M485.24,-432.15C409.43,-405.96 263.57,-355.57 181.96,-327.37"/>
<polygon fill="black" stroke="black" points="182.93,-324 172.34,-324.05 180.65,-330.62 182.93,-324"/>
</g>
<!-- [root] provider[&quot;registry.terraform.io/hashicorp/aws&quot;] (close)&#45;&gt;[root] aws_route.tf&#45;aws&#45;rt (expand) -->
<g id="edge28" class="edge">
<title>[root] provider[&quot;registry.terraform.io/hashicorp/aws&quot;] (close)&#45;&gt;[root] aws_route.tf&#45;aws&#45;rt (expand)</title>
<path fill="none" stroke="black" d="M524.83,-431.87C511.71,-407.35 487.45,-362.03 472.05,-333.26"/>
<polygon fill="black" stroke="black" points="475,-331.35 467.2,-324.19 468.83,-334.66 475,-331.35"/>
</g>
<!-- [root] provider[&quot;registry.terraform.io/hashicorp/aws&quot;] (close)&#45;&gt;[root] aws_route_table_association.tf&#45;aws&#45;rt&#45;assoc&#45;1 (expand) -->
<g id="edge29" class="edge">
<title>[root] provider[&quot;registry.terraform.io/hashicorp/aws&quot;] (close)&#45;&gt;[root] aws_route_table_association.tf&#45;aws&#45;rt&#45;assoc&#45;1 (expand)</title>
<path fill="none" stroke="black" d="M556.8,-431.87C590.57,-406.5 653.98,-358.85 691.96,-330.32"/>
<polygon fill="black" stroke="black" points="694.23,-332.99 700.12,-324.19 690.02,-327.4 694.23,-332.99"/>
</g>
<!-- [root] provider[&quot;registry.terraform.io/hashicorp/local&quot;] (close) -->
<g id="node24" class="node">
<title>[root] provider[&quot;registry.terraform.io/hashicorp/local&quot;] (close)</title>
<ellipse fill="none" stroke="black" cx="913" cy="-522" rx="295.95" ry="18"/>
<text text-anchor="middle" x="913" y="-518.3" font-family="Times,serif" font-size="14.00">[root] provider[&quot;registry.terraform.io/hashicorp/local&quot;] (close)</text>
</g>
<!-- [root] provider[&quot;registry.terraform.io/hashicorp/local&quot;] (close)&#45;&gt;[root] local_file.tf&#45;aws&#45;eip&#45;loc (expand) -->
<g id="edge32" class="edge">
<title>[root] provider[&quot;registry.terraform.io/hashicorp/local&quot;] (close)&#45;&gt;[root] local_file.tf&#45;aws&#45;eip&#45;loc (expand)</title>
<path fill="none" stroke="black" d="M917.7,-503.7C919.81,-495.9 922.36,-486.51 924.72,-477.83"/>
<polygon fill="black" stroke="black" points="928.12,-478.67 927.36,-468.1 921.36,-476.84 928.12,-478.67"/>
</g>
<!-- [root] root -->
<g id="node25" class="node">
<title>[root] root</title>
<ellipse fill="none" stroke="black" cx="733" cy="-594" rx="58.49" ry="18"/>
<text text-anchor="middle" x="733" y="-590.3" font-family="Times,serif" font-size="14.00">[root] root</text>
</g>
<!-- [root] root&#45;&gt;[root] provider[&quot;registry.terraform.io/hashicorp/aws&quot;] (close) -->
<g id="edge33" class="edge">
<title>[root] root&#45;&gt;[root] provider[&quot;registry.terraform.io/hashicorp/aws&quot;] (close)</title>
<path fill="none" stroke="black" d="M691.88,-581.1C666.17,-572.38 633.26,-558.77 608,-540 584.5,-522.54 563.78,-496.13 550.29,-476.61"/>
<polygon fill="black" stroke="black" points="553.1,-474.52 544.62,-468.18 547.3,-478.43 553.1,-474.52"/>
</g>
<!-- [root] root&#45;&gt;[root] provider[&quot;registry.terraform.io/hashicorp/local&quot;] (close) -->
<g id="edge34" class="edge">
<title>[root] root&#45;&gt;[root] provider[&quot;registry.terraform.io/hashicorp/local&quot;] (close)</title>
<path fill="none" stroke="black" d="M767.71,-579.5C793.89,-569.32 830.26,-555.18 860.06,-543.59"/>
<polygon fill="black" stroke="black" points="861.43,-546.81 869.48,-539.92 858.9,-540.29 861.43,-546.81"/>
</g>
</g>
</svg>
