<?xml version="1.0" encoding="UTF-8" standalone="no"?>
<!DOCTYPE svg PUBLIC "-//W3C//DTD SVG 1.1//EN"
 "http://www.w3.org/Graphics/SVG/1.1/DTD/svg11.dtd">
<!-- Generated by graphviz version 2.43.0 (0)
 -->
<!-- Title: %3 Pages: 1 -->
<svg width="1917pt" height="620pt"
 viewBox="0.00 0.00 1916.98 620.00" xmlns="http://www.w3.org/2000/svg" xmlns:xlink="http://www.w3.org/1999/xlink">
<g id="graph0" class="graph" transform="scale(1 1) rotate(0) translate(4 616)">
<title>%3</title>
<polygon fill="white" stroke="transparent" points="-4,4 -4,-616 1912.98,-616 1912.98,4 -4,4"/>
<!-- [root] aws_default_route_table.tf&#45;aws&#45;rt (expand) -->
<g id="node1" class="node">
<title>[root] aws_default_route_table.tf&#45;aws&#45;rt (expand)</title>
<polygon fill="none" stroke="black" points="254,-252 0,-252 0,-216 254,-216 254,-252"/>
<text text-anchor="middle" x="127" y="-230.3" font-family="Times,serif" font-size="14.00">aws_default_route_table.tf&#45;aws&#45;rt</text>
</g>
<!-- [root] aws_vpc.tf&#45;aws&#45;vpc (expand) -->
<g id="node12" class="node">
<title>[root] aws_vpc.tf&#45;aws&#45;vpc (expand)</title>
<polygon fill="none" stroke="black" points="767,-180 615,-180 615,-144 767,-144 767,-180"/>
<text text-anchor="middle" x="691" y="-158.3" font-family="Times,serif" font-size="14.00">aws_vpc.tf&#45;aws&#45;vpc</text>
</g>
<!-- [root] aws_default_route_table.tf&#45;aws&#45;rt (expand)&#45;&gt;[root] aws_vpc.tf&#45;aws&#45;vpc (expand) -->
<g id="edge1" class="edge">
<title>[root] aws_default_route_table.tf&#45;aws&#45;rt (expand)&#45;&gt;[root] aws_vpc.tf&#45;aws&#45;vpc (expand)</title>
<path fill="none" stroke="black" d="M254.05,-217.11C257.06,-216.74 260.05,-216.37 263,-216 381.46,-201.26 518.38,-184.32 604.82,-173.64"/>
<polygon fill="black" stroke="black" points="605.35,-177.1 614.84,-172.4 604.49,-170.16 605.35,-177.1"/>
</g>
<!-- [root] aws_ebs_volume.tf&#45;aws&#45;ebs (expand) -->
<g id="node2" class="node">
<title>[root] aws_ebs_volume.tf&#45;aws&#45;ebs (expand)</title>
<polygon fill="none" stroke="black" points="1209.5,-252 998.5,-252 998.5,-216 1209.5,-216 1209.5,-252"/>
<text text-anchor="middle" x="1104" y="-230.3" font-family="Times,serif" font-size="14.00">aws_ebs_volume.tf&#45;aws&#45;ebs</text>
</g>
<!-- [root] provider[&quot;registry.terraform.io/hashicorp/aws&quot;] -->
<g id="node14" class="node">
<title>[root] provider[&quot;registry.terraform.io/hashicorp/aws&quot;]</title>
<polygon fill="none" stroke="black" points="903,-108 577.74,-90 903,-72 1228.26,-90 903,-108"/>
<text text-anchor="middle" x="903" y="-86.3" font-family="Times,serif" font-size="14.00">provider[&quot;registry.terraform.io/hashicorp/aws&quot;]</text>
</g>
<!-- [root] aws_ebs_volume.tf&#45;aws&#45;ebs (expand)&#45;&gt;[root] provider[&quot;registry.terraform.io/hashicorp/aws&quot;] -->
<g id="edge2" class="edge">
<title>[root] aws_ebs_volume.tf&#45;aws&#45;ebs (expand)&#45;&gt;[root] provider[&quot;registry.terraform.io/hashicorp/aws&quot;]</title>
<path fill="none" stroke="black" d="M1088.45,-215.68C1070.59,-196.49 1039.79,-165.44 1009,-144 990.28,-130.97 967.9,-119.28 948.53,-110.22"/>
<polygon fill="black" stroke="black" points="949.85,-106.98 939.3,-105.99 946.93,-113.34 949.85,-106.98"/>
</g>
<!-- [root] var.aws_availability_zone -->
<g id="node16" class="node">
<title>[root] var.aws_availability_zone</title>
<polygon fill="none" stroke="black" points="994,-180 804,-180 804,-144 1000,-144 1000,-174 994,-180"/>
<polyline fill="none" stroke="black" points="994,-180 994,-174 "/>
<polyline fill="none" stroke="black" points="1000,-174 994,-174 "/>
<text text-anchor="middle" x="902" y="-158.3" font-family="Times,serif" font-size="14.00">var.aws_availability_zone</text>
</g>
<!-- [root] aws_ebs_volume.tf&#45;aws&#45;ebs (expand)&#45;&gt;[root] var.aws_availability_zone -->
<g id="edge3" class="edge">
<title>[root] aws_ebs_volume.tf&#45;aws&#45;ebs (expand)&#45;&gt;[root] var.aws_availability_zone</title>
<path fill="none" stroke="black" d="M1054.84,-215.97C1026.5,-206.14 990.68,-193.73 960.84,-183.39"/>
<polygon fill="black" stroke="black" points="961.97,-180.08 951.38,-180.11 959.68,-186.69 961.97,-180.08"/>
</g>
<!-- [root] var.env_tag -->
<g id="node19" class="node">
<title>[root] var.env_tag</title>
<polygon fill="none" stroke="black" points="1338,-108 1246,-108 1246,-72 1344,-72 1344,-102 1338,-108"/>
<polyline fill="none" stroke="black" points="1338,-108 1338,-102 "/>
<polyline fill="none" stroke="black" points="1344,-102 1338,-102 "/>
<text text-anchor="middle" x="1295" y="-86.3" font-family="Times,serif" font-size="14.00">var.env_tag</text>
</g>
<!-- [root] aws_ebs_volume.tf&#45;aws&#45;ebs (expand)&#45;&gt;[root] var.env_tag -->
<g id="edge4" class="edge">
<title>[root] aws_ebs_volume.tf&#45;aws&#45;ebs (expand)&#45;&gt;[root] var.env_tag</title>
<path fill="none" stroke="black" d="M1108.89,-215.89C1115.41,-196 1128.78,-163.45 1151,-144 1157.92,-137.94 1199.31,-122.99 1235.95,-110.5"/>
<polygon fill="black" stroke="black" points="1237.28,-113.75 1245.63,-107.22 1235.04,-107.12 1237.28,-113.75"/>
</g>
<!-- [root] var.vm_map -->
<g id="node21" class="node">
<title>[root] var.vm_map</title>
<polygon fill="none" stroke="black" points="1256,-180 1160,-180 1160,-144 1262,-144 1262,-174 1256,-180"/>
<polyline fill="none" stroke="black" points="1256,-180 1256,-174 "/>
<polyline fill="none" stroke="black" points="1262,-174 1256,-174 "/>
<text text-anchor="middle" x="1211" y="-158.3" font-family="Times,serif" font-size="14.00">var.vm_map</text>
</g>
<!-- [root] aws_ebs_volume.tf&#45;aws&#45;ebs (expand)&#45;&gt;[root] var.vm_map -->
<g id="edge5" class="edge">
<title>[root] aws_ebs_volume.tf&#45;aws&#45;ebs (expand)&#45;&gt;[root] var.vm_map</title>
<path fill="none" stroke="black" d="M1130.18,-215.88C1144.04,-206.81 1161.24,-195.55 1176.21,-185.76"/>
<polygon fill="black" stroke="black" points="1178.27,-188.59 1184.72,-180.19 1174.44,-182.74 1178.27,-188.59"/>
</g>
<!-- [root] aws_eip.tf&#45;aws&#45;eip (expand) -->
<g id="node3" class="node">
<title>[root] aws_eip.tf&#45;aws&#45;eip (expand)</title>
<polygon fill="none" stroke="black" points="1231,-396 1085,-396 1085,-360 1231,-360 1231,-396"/>
<text text-anchor="middle" x="1158" y="-374.3" font-family="Times,serif" font-size="14.00">aws_eip.tf&#45;aws&#45;eip</text>
</g>
<!-- [root] aws_instance.tf&#45;aws&#45;ubuntu&#45;instance (expand) -->
<g id="node4" class="node">
<title>[root] aws_instance.tf&#45;aws&#45;ubuntu&#45;instance (expand)</title>
<polygon fill="none" stroke="black" points="1076,-324 798,-324 798,-288 1076,-288 1076,-324"/>
<text text-anchor="middle" x="937" y="-302.3" font-family="Times,serif" font-size="14.00">aws_instance.tf&#45;aws&#45;ubuntu&#45;instance</text>
</g>
<!-- [root] aws_eip.tf&#45;aws&#45;eip (expand)&#45;&gt;[root] aws_instance.tf&#45;aws&#45;ubuntu&#45;instance (expand) -->
<g id="edge6" class="edge">
<title>[root] aws_eip.tf&#45;aws&#45;eip (expand)&#45;&gt;[root] aws_instance.tf&#45;aws&#45;ubuntu&#45;instance (expand)</title>
<path fill="none" stroke="black" d="M1104.22,-359.97C1073.07,-350.1 1033.68,-337.62 1000.95,-327.25"/>
<polygon fill="black" stroke="black" points="1001.61,-323.79 991.02,-324.11 999.5,-330.47 1001.61,-323.79"/>
</g>
<!-- [root] aws_internet_gateway.tf&#45;aws&#45;gw (expand) -->
<g id="node5" class="node">
<title>[root] aws_internet_gateway.tf&#45;aws&#45;gw (expand)</title>
<polygon fill="none" stroke="black" points="518,-252 272,-252 272,-216 518,-216 518,-252"/>
<text text-anchor="middle" x="395" y="-230.3" font-family="Times,serif" font-size="14.00">aws_internet_gateway.tf&#45;aws&#45;gw</text>
</g>
<!-- [root] aws_instance.tf&#45;aws&#45;ubuntu&#45;instance (expand)&#45;&gt;[root] aws_internet_gateway.tf&#45;aws&#45;gw (expand) -->
<g id="edge7" class="edge">
<title>[root] aws_instance.tf&#45;aws&#45;ubuntu&#45;instance (expand)&#45;&gt;[root] aws_internet_gateway.tf&#45;aws&#45;gw (expand)</title>
<path fill="none" stroke="black" d="M805.1,-287.97C721.1,-277.12 612.62,-263.11 528.33,-252.22"/>
<polygon fill="black" stroke="black" points="528.54,-248.72 518.18,-250.91 527.65,-255.66 528.54,-248.72"/>
</g>
<!-- [root] aws_security_group.tf&#45;aws&#45;sg (expand) -->
<g id="node9" class="node">
<title>[root] aws_security_group.tf&#45;aws&#45;sg (expand)</title>
<polygon fill="none" stroke="black" points="762,-252 536,-252 536,-216 762,-216 762,-252"/>
<text text-anchor="middle" x="649" y="-230.3" font-family="Times,serif" font-size="14.00">aws_security_group.tf&#45;aws&#45;sg</text>
</g>
<!-- [root] aws_instance.tf&#45;aws&#45;ubuntu&#45;instance (expand)&#45;&gt;[root] aws_security_group.tf&#45;aws&#45;sg (expand) -->
<g id="edge8" class="edge">
<title>[root] aws_instance.tf&#45;aws&#45;ubuntu&#45;instance (expand)&#45;&gt;[root] aws_security_group.tf&#45;aws&#45;sg (expand)</title>
<path fill="none" stroke="black" d="M866.92,-287.97C825.36,-277.87 772.55,-265.03 729.32,-254.52"/>
<polygon fill="black" stroke="black" points="729.94,-251.07 719.4,-252.11 728.29,-257.87 729.94,-251.07"/>
</g>
<!-- [root] aws_subnet.tf&#45;aws&#45;subnet (expand) -->
<g id="node10" class="node">
<title>[root] aws_subnet.tf&#45;aws&#45;subnet (expand)</title>
<polygon fill="none" stroke="black" points="980,-252 780,-252 780,-216 980,-216 980,-252"/>
<text text-anchor="middle" x="880" y="-230.3" font-family="Times,serif" font-size="14.00">aws_subnet.tf&#45;aws&#45;subnet</text>
</g>
<!-- [root] aws_instance.tf&#45;aws&#45;ubuntu&#45;instance (expand)&#45;&gt;[root] aws_subnet.tf&#45;aws&#45;subnet (expand) -->
<g id="edge9" class="edge">
<title>[root] aws_instance.tf&#45;aws&#45;ubuntu&#45;instance (expand)&#45;&gt;[root] aws_subnet.tf&#45;aws&#45;subnet (expand)</title>
<path fill="none" stroke="black" d="M922.91,-287.7C916.08,-279.3 907.74,-269.07 900.24,-259.86"/>
<polygon fill="black" stroke="black" points="902.96,-257.65 893.93,-252.1 897.53,-262.07 902.96,-257.65"/>
</g>
<!-- [root] var.ssh_key_name -->
<g id="node20" class="node">
<title>[root] var.ssh_key_name</title>
<polygon fill="none" stroke="black" points="1404,-252 1266,-252 1266,-216 1410,-216 1410,-246 1404,-252"/>
<polyline fill="none" stroke="black" points="1404,-252 1404,-246 "/>
<polyline fill="none" stroke="black" points="1410,-246 1404,-246 "/>
<text text-anchor="middle" x="1338" y="-230.3" font-family="Times,serif" font-size="14.00">var.ssh_key_name</text>
</g>
<!-- [root] aws_instance.tf&#45;aws&#45;ubuntu&#45;instance (expand)&#45;&gt;[root] var.ssh_key_name -->
<g id="edge10" class="edge">
<title>[root] aws_instance.tf&#45;aws&#45;ubuntu&#45;instance (expand)&#45;&gt;[root] var.ssh_key_name</title>
<path fill="none" stroke="black" d="M1042.85,-287.96C1104.04,-277.92 1182.45,-264.72 1252,-252 1253.26,-251.77 1254.54,-251.53 1255.82,-251.3"/>
<polygon fill="black" stroke="black" points="1256.58,-254.72 1265.77,-249.43 1255.29,-247.83 1256.58,-254.72"/>
</g>
<!-- [root] aws_instance.tf&#45;aws&#45;ubuntu&#45;instance (expand)&#45;&gt;[root] var.vm_map -->
<g id="edge11" class="edge">
<title>[root] aws_instance.tf&#45;aws&#45;ubuntu&#45;instance (expand)&#45;&gt;[root] var.vm_map</title>
<path fill="none" stroke="black" d="M1076.2,-295.36C1137.55,-287.92 1200.04,-274.86 1219,-252 1233.17,-234.92 1229,-209.13 1222.57,-189.71"/>
<polygon fill="black" stroke="black" points="1225.82,-188.39 1219.08,-180.21 1219.24,-190.8 1225.82,-188.39"/>
</g>
<!-- [root] aws_internet_gateway.tf&#45;aws&#45;gw (expand)&#45;&gt;[root] aws_vpc.tf&#45;aws&#45;vpc (expand) -->
<g id="edge12" class="edge">
<title>[root] aws_internet_gateway.tf&#45;aws&#45;gw (expand)&#45;&gt;[root] aws_vpc.tf&#45;aws&#45;vpc (expand)</title>
<path fill="none" stroke="black" d="M467.03,-215.97C509.91,-205.83 564.45,-192.93 608.98,-182.4"/>
<polygon fill="black" stroke="black" points="609.98,-185.76 618.9,-180.05 608.37,-178.95 609.98,-185.76"/>
</g>
<!-- [root] aws_key_pair.tf&#45;aws&#45;key&#45;pair (expand) -->
<g id="node6" class="node">
<title>[root] aws_key_pair.tf&#45;aws&#45;key&#45;pair (expand)</title>
<polygon fill="none" stroke="black" points="1497.5,-324 1278.5,-324 1278.5,-288 1497.5,-288 1497.5,-324"/>
<text text-anchor="middle" x="1388" y="-302.3" font-family="Times,serif" font-size="14.00">aws_key_pair.tf&#45;aws&#45;key&#45;pair</text>
</g>
<!-- [root] aws_key_pair.tf&#45;aws&#45;key&#45;pair (expand)&#45;&gt;[root] provider[&quot;registry.terraform.io/hashicorp/aws&quot;] -->
<g id="edge13" class="edge">
<title>[root] aws_key_pair.tf&#45;aws&#45;key&#45;pair (expand)&#45;&gt;[root] provider[&quot;registry.terraform.io/hashicorp/aws&quot;]</title>
<path fill="none" stroke="black" d="M1402.39,-287.93C1416.3,-269.24 1433.32,-238.89 1419,-216 1380.21,-153.99 1340.93,-165.47 1271,-144 1199.69,-122.1 1117.77,-109.18 1049.35,-101.58"/>
<polygon fill="black" stroke="black" points="1049.67,-98.1 1039.35,-100.5 1048.92,-105.06 1049.67,-98.1"/>
</g>
<!-- [root] aws_key_pair.tf&#45;aws&#45;key&#45;pair (expand)&#45;&gt;[root] var.env_tag -->
<g id="edge14" class="edge">
<title>[root] aws_key_pair.tf&#45;aws&#45;key&#45;pair (expand)&#45;&gt;[root] var.env_tag</title>
<path fill="none" stroke="black" d="M1418.77,-287.91C1431.54,-279.02 1445,-266.88 1452,-252 1472.43,-208.56 1479.99,-182.99 1452,-144 1429.86,-113.16 1388.82,-100.03 1354.26,-94.55"/>
<polygon fill="black" stroke="black" points="1354.62,-91.07 1344.23,-93.14 1353.65,-98 1354.62,-91.07"/>
</g>
<!-- [root] aws_key_pair.tf&#45;aws&#45;key&#45;pair (expand)&#45;&gt;[root] var.ssh_key_name -->
<g id="edge15" class="edge">
<title>[root] aws_key_pair.tf&#45;aws&#45;key&#45;pair (expand)&#45;&gt;[root] var.ssh_key_name</title>
<path fill="none" stroke="black" d="M1375.64,-287.7C1369.77,-279.47 1362.63,-269.48 1356.16,-260.42"/>
<polygon fill="black" stroke="black" points="1358.88,-258.21 1350.22,-252.1 1353.18,-262.28 1358.88,-258.21"/>
</g>
<!-- [root] aws_route.tf&#45;aws&#45;rt (expand) -->
<g id="node7" class="node">
<title>[root] aws_route.tf&#45;aws&#45;rt (expand)</title>
<polygon fill="none" stroke="black" points="422,-324 268,-324 268,-288 422,-288 422,-324"/>
<text text-anchor="middle" x="345" y="-302.3" font-family="Times,serif" font-size="14.00">aws_route.tf&#45;aws&#45;rt</text>
</g>
<!-- [root] aws_route.tf&#45;aws&#45;rt (expand)&#45;&gt;[root] aws_default_route_table.tf&#45;aws&#45;rt (expand) -->
<g id="edge16" class="edge">
<title>[root] aws_route.tf&#45;aws&#45;rt (expand)&#45;&gt;[root] aws_default_route_table.tf&#45;aws&#45;rt (expand)</title>
<path fill="none" stroke="black" d="M291.95,-287.97C261.23,-278.1 222.36,-265.62 190.08,-255.25"/>
<polygon fill="black" stroke="black" points="190.88,-251.84 180.29,-252.11 188.74,-258.5 190.88,-251.84"/>
</g>
<!-- [root] aws_route.tf&#45;aws&#45;rt (expand)&#45;&gt;[root] aws_internet_gateway.tf&#45;aws&#45;gw (expand) -->
<g id="edge17" class="edge">
<title>[root] aws_route.tf&#45;aws&#45;rt (expand)&#45;&gt;[root] aws_internet_gateway.tf&#45;aws&#45;gw (expand)</title>
<path fill="none" stroke="black" d="M357.36,-287.7C363.23,-279.47 370.37,-269.48 376.84,-260.42"/>
<polygon fill="black" stroke="black" points="379.82,-262.28 382.78,-252.1 374.12,-258.21 379.82,-262.28"/>
</g>
<!-- [root] aws_route_table_association.tf&#45;aws&#45;rt&#45;assoc&#45;1 (expand) -->
<g id="node8" class="node">
<title>[root] aws_route_table_association.tf&#45;aws&#45;rt&#45;assoc&#45;1 (expand)</title>
<polygon fill="none" stroke="black" points="780,-324 440,-324 440,-288 780,-288 780,-324"/>
<text text-anchor="middle" x="610" y="-302.3" font-family="Times,serif" font-size="14.00">aws_route_table_association.tf&#45;aws&#45;rt&#45;assoc&#45;1</text>
</g>
<!-- [root] aws_route_table_association.tf&#45;aws&#45;rt&#45;assoc&#45;1 (expand)&#45;&gt;[root] aws_default_route_table.tf&#45;aws&#45;rt (expand) -->
<g id="edge18" class="edge">
<title>[root] aws_route_table_association.tf&#45;aws&#45;rt&#45;assoc&#45;1 (expand)&#45;&gt;[root] aws_default_route_table.tf&#45;aws&#45;rt (expand)</title>
<path fill="none" stroke="black" d="M492.46,-287.97C420.59,-277.55 328.62,-264.22 254.92,-253.54"/>
<polygon fill="black" stroke="black" points="255.04,-250.02 244.65,-252.05 254.04,-256.95 255.04,-250.02"/>
</g>
<!-- [root] aws_route_table_association.tf&#45;aws&#45;rt&#45;assoc&#45;1 (expand)&#45;&gt;[root] aws_subnet.tf&#45;aws&#45;subnet (expand) -->
<g id="edge19" class="edge">
<title>[root] aws_route_table_association.tf&#45;aws&#45;rt&#45;assoc&#45;1 (expand)&#45;&gt;[root] aws_subnet.tf&#45;aws&#45;subnet (expand)</title>
<path fill="none" stroke="black" d="M675.7,-287.97C714.5,-277.91 763.76,-265.14 804.19,-254.65"/>
<polygon fill="black" stroke="black" points="805.2,-258.01 814,-252.11 803.44,-251.23 805.2,-258.01"/>
</g>
<!-- [root] aws_security_group.tf&#45;aws&#45;sg (expand)&#45;&gt;[root] aws_vpc.tf&#45;aws&#45;vpc (expand) -->
<g id="edge20" class="edge">
<title>[root] aws_security_group.tf&#45;aws&#45;sg (expand)&#45;&gt;[root] aws_vpc.tf&#45;aws&#45;vpc (expand)</title>
<path fill="none" stroke="black" d="M659.38,-215.7C664.26,-207.56 670.19,-197.69 675.58,-188.7"/>
<polygon fill="black" stroke="black" points="678.59,-190.48 680.74,-180.1 672.59,-186.88 678.59,-190.48"/>
</g>
<!-- [root] aws_subnet.tf&#45;aws&#45;subnet (expand)&#45;&gt;[root] aws_vpc.tf&#45;aws&#45;vpc (expand) -->
<g id="edge21" class="edge">
<title>[root] aws_subnet.tf&#45;aws&#45;subnet (expand)&#45;&gt;[root] aws_vpc.tf&#45;aws&#45;vpc (expand)</title>
<path fill="none" stroke="black" d="M833.77,-215.88C807.47,-206.14 774.36,-193.87 746.64,-183.61"/>
<polygon fill="black" stroke="black" points="747.68,-180.26 737.08,-180.07 745.25,-186.82 747.68,-180.26"/>
</g>
<!-- [root] aws_subnet.tf&#45;aws&#45;subnet (expand)&#45;&gt;[root] var.aws_availability_zone -->
<g id="edge22" class="edge">
<title>[root] aws_subnet.tf&#45;aws&#45;subnet (expand)&#45;&gt;[root] var.aws_availability_zone</title>
<path fill="none" stroke="black" d="M885.44,-215.7C887.89,-207.9 890.84,-198.51 893.57,-189.83"/>
<polygon fill="black" stroke="black" points="896.96,-190.69 896.62,-180.1 890.29,-188.59 896.96,-190.69"/>
</g>
<!-- [root] aws_volume_attachment.tf&#45;aws&#45;ebs (expand) -->
<g id="node11" class="node">
<title>[root] aws_volume_attachment.tf&#45;aws&#45;ebs (expand)</title>
<polygon fill="none" stroke="black" points="1029,-396 761,-396 761,-360 1029,-360 1029,-396"/>
<text text-anchor="middle" x="895" y="-374.3" font-family="Times,serif" font-size="14.00">aws_volume_attachment.tf&#45;aws&#45;ebs</text>
</g>
<!-- [root] aws_volume_attachment.tf&#45;aws&#45;ebs (expand)&#45;&gt;[root] aws_ebs_volume.tf&#45;aws&#45;ebs (expand) -->
<g id="edge23" class="edge">
<title>[root] aws_volume_attachment.tf&#45;aws&#45;ebs (expand)&#45;&gt;[root] aws_ebs_volume.tf&#45;aws&#45;ebs (expand)</title>
<path fill="none" stroke="black" d="M1028.04,-359.96C1049.39,-351.97 1069.52,-340.47 1085,-324 1100.43,-307.59 1104.57,-281.84 1105.2,-262.26"/>
<polygon fill="black" stroke="black" points="1108.7,-262.12 1105.25,-252.11 1101.7,-262.1 1108.7,-262.12"/>
</g>
<!-- [root] aws_volume_attachment.tf&#45;aws&#45;ebs (expand)&#45;&gt;[root] aws_instance.tf&#45;aws&#45;ubuntu&#45;instance (expand) -->
<g id="edge24" class="edge">
<title>[root] aws_volume_attachment.tf&#45;aws&#45;ebs (expand)&#45;&gt;[root] aws_instance.tf&#45;aws&#45;ubuntu&#45;instance (expand)</title>
<path fill="none" stroke="black" d="M905.38,-359.7C910.26,-351.56 916.19,-341.69 921.58,-332.7"/>
<polygon fill="black" stroke="black" points="924.59,-334.48 926.74,-324.1 918.59,-330.88 924.59,-334.48"/>
</g>
<!-- [root] aws_vpc.tf&#45;aws&#45;vpc (expand)&#45;&gt;[root] provider[&quot;registry.terraform.io/hashicorp/aws&quot;] -->
<g id="edge25" class="edge">
<title>[root] aws_vpc.tf&#45;aws&#45;vpc (expand)&#45;&gt;[root] provider[&quot;registry.terraform.io/hashicorp/aws&quot;]</title>
<path fill="none" stroke="black" d="M742.59,-143.97C774.8,-133.33 816.21,-119.66 848.89,-108.87"/>
<polygon fill="black" stroke="black" points="850.33,-112.08 858.73,-105.62 848.13,-105.43 850.33,-112.08"/>
</g>
<!-- [root] aws_vpc.tf&#45;aws&#45;vpc (expand)&#45;&gt;[root] var.env_tag -->
<g id="edge26" class="edge">
<title>[root] aws_vpc.tf&#45;aws&#45;vpc (expand)&#45;&gt;[root] var.env_tag</title>
<path fill="none" stroke="black" d="M767.01,-147.85C776.42,-146.43 785.92,-145.11 795,-144 987.39,-120.48 1041.42,-143.13 1235.84,-107.99"/>
<polygon fill="black" stroke="black" points="1236.6,-111.41 1245.8,-106.16 1235.34,-104.52 1236.6,-111.41"/>
</g>
<!-- [root] local_file.tf&#45;aws&#45;eip&#45;loc (expand) -->
<g id="node13" class="node">
<title>[root] local_file.tf&#45;aws&#45;eip&#45;loc (expand)</title>
<polygon fill="none" stroke="black" points="1381,-468 1205,-468 1205,-432 1381,-432 1381,-468"/>
<text text-anchor="middle" x="1293" y="-446.3" font-family="Times,serif" font-size="14.00">local_file.tf&#45;aws&#45;eip&#45;loc</text>
</g>
<!-- [root] local_file.tf&#45;aws&#45;eip&#45;loc (expand)&#45;&gt;[root] aws_eip.tf&#45;aws&#45;eip (expand) -->
<g id="edge27" class="edge">
<title>[root] local_file.tf&#45;aws&#45;eip&#45;loc (expand)&#45;&gt;[root] aws_eip.tf&#45;aws&#45;eip (expand)</title>
<path fill="none" stroke="black" d="M1259.98,-431.88C1241.92,-422.51 1219.35,-410.81 1200.05,-400.8"/>
<polygon fill="black" stroke="black" points="1201.64,-397.69 1191.15,-396.19 1198.42,-403.9 1201.64,-397.69"/>
</g>
<!-- [root] provider[&quot;registry.terraform.io/hashicorp/local&quot;] -->
<g id="node15" class="node">
<title>[root] provider[&quot;registry.terraform.io/hashicorp/local&quot;]</title>
<polygon fill="none" stroke="black" points="1579,-396 1249.05,-378 1579,-360 1908.95,-378 1579,-396"/>
<text text-anchor="middle" x="1579" y="-374.3" font-family="Times,serif" font-size="14.00">provider[&quot;registry.terraform.io/hashicorp/local&quot;]</text>
</g>
<!-- [root] local_file.tf&#45;aws&#45;eip&#45;loc (expand)&#45;&gt;[root] provider[&quot;registry.terraform.io/hashicorp/local&quot;] -->
<g id="edge28" class="edge">
<title>[root] local_file.tf&#45;aws&#45;eip&#45;loc (expand)&#45;&gt;[root] provider[&quot;registry.terraform.io/hashicorp/local&quot;]</title>
<path fill="none" stroke="black" d="M1362.6,-431.97C1408.1,-420.83 1467.2,-406.36 1512.14,-395.36"/>
<polygon fill="black" stroke="black" points="1513.2,-398.71 1522.08,-392.93 1511.54,-391.91 1513.2,-398.71"/>
</g>
<!-- [root] var.aws_profile -->
<g id="node17" class="node">
<title>[root] var.aws_profile</title>
<polygon fill="none" stroke="black" points="888.5,-36 771.5,-36 771.5,0 894.5,0 894.5,-30 888.5,-36"/>
<polyline fill="none" stroke="black" points="888.5,-36 888.5,-30 "/>
<polyline fill="none" stroke="black" points="894.5,-30 888.5,-30 "/>
<text text-anchor="middle" x="833" y="-14.3" font-family="Times,serif" font-size="14.00">var.aws_profile</text>
</g>
<!-- [root] provider[&quot;registry.terraform.io/hashicorp/aws&quot;]&#45;&gt;[root] var.aws_profile -->
<g id="edge34" class="edge">
<title>[root] provider[&quot;registry.terraform.io/hashicorp/aws&quot;]&#45;&gt;[root] var.aws_profile</title>
<path fill="none" stroke="black" d="M886.76,-72.76C878.01,-64.01 867.03,-53.03 857.28,-43.28"/>
<polygon fill="black" stroke="black" points="859.67,-40.72 850.12,-36.12 854.72,-45.67 859.67,-40.72"/>
</g>
<!-- [root] var.aws_region -->
<g id="node18" class="node">
<title>[root] var.aws_region</title>
<polygon fill="none" stroke="black" points="1029.5,-36 912.5,-36 912.5,0 1035.5,0 1035.5,-30 1029.5,-36"/>
<polyline fill="none" stroke="black" points="1029.5,-36 1029.5,-30 "/>
<polyline fill="none" stroke="black" points="1035.5,-30 1029.5,-30 "/>
<text text-anchor="middle" x="974" y="-14.3" font-family="Times,serif" font-size="14.00">var.aws_region</text>
</g>
<!-- [root] provider[&quot;registry.terraform.io/hashicorp/aws&quot;]&#45;&gt;[root] var.aws_region -->
<g id="edge35" class="edge">
<title>[root] provider[&quot;registry.terraform.io/hashicorp/aws&quot;]&#45;&gt;[root] var.aws_region</title>
<path fill="none" stroke="black" d="M919.47,-72.76C928.35,-64.01 939.48,-53.03 949.37,-43.28"/>
<polygon fill="black" stroke="black" points="951.97,-45.64 956.63,-36.12 947.05,-40.65 951.97,-45.64"/>
</g>
<!-- [root] provider[&quot;registry.terraform.io/hashicorp/aws&quot;] (close) -->
<g id="node22" class="node">
<title>[root] provider[&quot;registry.terraform.io/hashicorp/aws&quot;] (close)</title>
<ellipse fill="none" stroke="black" cx="895" cy="-450" rx="291.65" ry="18"/>
<text text-anchor="middle" x="895" y="-446.3" font-family="Times,serif" font-size="14.00">[root] provider[&quot;registry.terraform.io/hashicorp/aws&quot;] (close)</text>
</g>
<!-- [root] provider[&quot;registry.terraform.io/hashicorp/aws&quot;] (close)&#45;&gt;[root] aws_eip.tf&#45;aws&#45;eip (expand) -->
<g id="edge29" class="edge">
<title>[root] provider[&quot;registry.terraform.io/hashicorp/aws&quot;] (close)&#45;&gt;[root] aws_eip.tf&#45;aws&#45;eip (expand)</title>
<path fill="none" stroke="black" d="M957.33,-432.41C995.36,-422.29 1044.18,-409.3 1084.14,-398.66"/>
<polygon fill="black" stroke="black" points="1085.07,-402.03 1093.83,-396.08 1083.27,-395.27 1085.07,-402.03"/>
</g>
<!-- [root] provider[&quot;registry.terraform.io/hashicorp/aws&quot;] (close)&#45;&gt;[root] aws_key_pair.tf&#45;aws&#45;key&#45;pair (expand) -->
<g id="edge30" class="edge">
<title>[root] provider[&quot;registry.terraform.io/hashicorp/aws&quot;] (close)&#45;&gt;[root] aws_key_pair.tf&#45;aws&#45;key&#45;pair (expand)</title>
<path fill="none" stroke="black" d="M956.29,-432.31C982.58,-423.66 1012.94,-411.6 1038,-396 1057.75,-383.71 1055.19,-370.4 1076,-360 1135.36,-330.34 1208.16,-316.87 1268.5,-310.92"/>
<polygon fill="black" stroke="black" points="1268.82,-314.4 1278.45,-309.99 1268.17,-307.43 1268.82,-314.4"/>
</g>
<!-- [root] provider[&quot;registry.terraform.io/hashicorp/aws&quot;] (close)&#45;&gt;[root] aws_route.tf&#45;aws&#45;rt (expand) -->
<g id="edge31" class="edge">
<title>[root] provider[&quot;registry.terraform.io/hashicorp/aws&quot;] (close)&#45;&gt;[root] aws_route.tf&#45;aws&#45;rt (expand)</title>
<path fill="none" stroke="black" d="M829.73,-432.34C788.97,-421.93 735.42,-408.22 688,-396 595.87,-372.25 489.89,-344.72 420.4,-326.64"/>
<polygon fill="black" stroke="black" points="420.98,-323.17 410.42,-324.04 419.22,-329.95 420.98,-323.17"/>
</g>
<!-- [root] provider[&quot;registry.terraform.io/hashicorp/aws&quot;] (close)&#45;&gt;[root] aws_route_table_association.tf&#45;aws&#45;rt&#45;assoc&#45;1 (expand) -->
<g id="edge32" class="edge">
<title>[root] provider[&quot;registry.terraform.io/hashicorp/aws&quot;] (close)&#45;&gt;[root] aws_route_table_association.tf&#45;aws&#45;rt&#45;assoc&#45;1 (expand)</title>
<path fill="none" stroke="black" d="M841.96,-432.25C814.54,-422.87 780.86,-410.21 752,-396 712.49,-376.55 670.07,-349 641.98,-329.71"/>
<polygon fill="black" stroke="black" points="643.96,-326.82 633.75,-324.01 639.98,-332.58 643.96,-326.82"/>
</g>
<!-- [root] provider[&quot;registry.terraform.io/hashicorp/aws&quot;] (close)&#45;&gt;[root] aws_volume_attachment.tf&#45;aws&#45;ebs (expand) -->
<g id="edge33" class="edge">
<title>[root] provider[&quot;registry.terraform.io/hashicorp/aws&quot;] (close)&#45;&gt;[root] aws_volume_attachment.tf&#45;aws&#45;ebs (expand)</title>
<path fill="none" stroke="black" d="M895,-431.7C895,-423.98 895,-414.71 895,-406.11"/>
<polygon fill="black" stroke="black" points="898.5,-406.1 895,-396.1 891.5,-406.1 898.5,-406.1"/>
</g>
<!-- [root] provider[&quot;registry.terraform.io/hashicorp/local&quot;] (close) -->
<g id="node23" class="node">
<title>[root] provider[&quot;registry.terraform.io/hashicorp/local&quot;] (close)</title>
<ellipse fill="none" stroke="black" cx="1274" cy="-522" rx="295.95" ry="18"/>
<text text-anchor="middle" x="1274" y="-518.3" font-family="Times,serif" font-size="14.00">[root] provider[&quot;registry.terraform.io/hashicorp/local&quot;] (close)</text>
</g>
<!-- [root] provider[&quot;registry.terraform.io/hashicorp/local&quot;] (close)&#45;&gt;[root] local_file.tf&#45;aws&#45;eip&#45;loc (expand) -->
<g id="edge36" class="edge">
<title>[root] provider[&quot;registry.terraform.io/hashicorp/local&quot;] (close)&#45;&gt;[root] local_file.tf&#45;aws&#45;eip&#45;loc (expand)</title>
<path fill="none" stroke="black" d="M1278.7,-503.7C1280.81,-495.9 1283.36,-486.51 1285.72,-477.83"/>
<polygon fill="black" stroke="black" points="1289.12,-478.67 1288.36,-468.1 1282.36,-476.84 1289.12,-478.67"/>
</g>
<!-- [root] root -->
<g id="node24" class="node">
<title>[root] root</title>
<ellipse fill="none" stroke="black" cx="1094" cy="-594" rx="58.49" ry="18"/>
<text text-anchor="middle" x="1094" y="-590.3" font-family="Times,serif" font-size="14.00">[root] root</text>
</g>
<!-- [root] root&#45;&gt;[root] provider[&quot;registry.terraform.io/hashicorp/aws&quot;] (close) -->
<g id="edge37" class="edge">
<title>[root] root&#45;&gt;[root] provider[&quot;registry.terraform.io/hashicorp/aws&quot;] (close)</title>
<path fill="none" stroke="black" d="M1052.88,-581.1C1027.17,-572.38 994.26,-558.77 969,-540 945.5,-522.54 924.78,-496.13 911.29,-476.61"/>
<polygon fill="black" stroke="black" points="914.1,-474.52 905.62,-468.18 908.3,-478.43 914.1,-474.52"/>
</g>
<!-- [root] root&#45;&gt;[root] provider[&quot;registry.terraform.io/hashicorp/local&quot;] (close) -->
<g id="edge38" class="edge">
<title>[root] root&#45;&gt;[root] provider[&quot;registry.terraform.io/hashicorp/local&quot;] (close)</title>
<path fill="none" stroke="black" d="M1128.71,-579.5C1154.89,-569.32 1191.26,-555.18 1221.06,-543.59"/>
<polygon fill="black" stroke="black" points="1222.43,-546.81 1230.48,-539.92 1219.9,-540.29 1222.43,-546.81"/>
</g>
</g>
</svg>
